<svg width="15" height="15" viewBox="0 0 15 15" fill="none" xmlns="http://www.w3.org/2000/svg">
<path d="M15 0.837054C15 0.401786 14.5982 0 14.1629 0H0.803571C0.368304 0 0 0.401786 0 0.837054V14.1964C0 14.6317 0.368304 15 0.803571 15H8.00223V9.20759H6.02679V6.9308H8.00223V5.2567C8.00223 3.34821 9.17411 2.27679 10.9152 2.27679C11.7188 2.27679 12.4554 2.34375 12.6562 2.37723V4.38616H11.4509C10.5134 4.38616 10.346 4.85491 10.346 5.49107V6.9308H12.5893L12.2879 9.20759H10.346V15H14.1629C14.5982 15 15 14.6317 15 14.1964V0.837054Z" fill="white"/>
</svg>
