<svg width="57" height="98" viewBox="0 0 57 98" fill="none" xmlns="http://www.w3.org/2000/svg">
<path d="M18.6918 85.3837L10.5678 73.5426L18.3615 62.2953H12.3511L5.28389 72.3222V62.2953H0V85.3837H5.28389V74.6971L12.6814 85.3837H18.6918ZM32.562 62.2953L28.5 72.3882L23.9757 62.2953H18.6918L26.0892 78.1603C25.1976 79.7765 23.8766 80.6671 21.4658 80.4362V85.3837C25.792 85.6146 29.1275 83.5696 31.175 78.5891L37.8459 62.2953H32.562ZM49.0742 70.871H45.4415V67.3747H55.0185V62.2953H40.1576V85.3837H49.0742C53.7966 85.3837 57 82.5141 57 78.1273C57 73.7405 53.7966 70.871 49.0742 70.871ZM49.0742 80.4362H45.4415V75.8185H49.0742C50.5272 75.8185 51.7161 76.4452 51.7161 78.1273C51.7161 79.8095 50.5272 80.4362 49.0742 80.4362Z" fill="white"/>
<path d="M0.912871 90.3149L1.98591 88.9776V88.9656H1.4494L0.47245 90.1868V88.9656H0V91.6882H0.47245V90.4711L1.51346 91.6882H2.06999V91.6722L0.912871 90.3149ZM3.5434 91.7403C4.38421 91.7403 4.96077 91.1197 4.96077 90.3229C4.96077 89.5061 4.38421 88.9136 3.5434 88.9136C2.7106 88.9136 2.12603 89.5061 2.12603 90.3229C2.12603 91.1197 2.7106 91.7403 3.5434 91.7403ZM3.5434 91.3119C2.97486 91.3119 2.61051 90.8714 2.61051 90.3229C2.61051 89.7584 2.97486 89.342 3.5434 89.342C4.11595 89.342 4.4803 89.7584 4.4803 90.3229C4.4803 90.8714 4.11595 91.3119 3.5434 91.3119ZM5.47725 91.6882H5.9497V90.6953H6.51425C7.11482 90.6953 7.43514 90.2869 7.43514 89.8425C7.43514 89.394 7.10682 88.9656 6.52225 88.9656H5.47725V91.6882ZM5.9497 90.2909V89.378H6.47421C6.7745 89.378 6.95868 89.5822 6.95868 89.8384C6.95868 90.0707 6.80653 90.2909 6.4622 90.2909H5.9497ZM7.87155 91.6882H8.34402V89.402H9.57318V91.6882H10.0496V88.9656H7.87155V91.6882ZM11.9795 91.7403C12.8203 91.7403 13.3969 91.1197 13.3969 90.3229C13.3969 89.5061 12.8203 88.9136 11.9795 88.9136C11.1467 88.9136 10.5621 89.5061 10.5621 90.3229C10.5621 91.1197 11.1467 91.7403 11.9795 91.7403ZM11.9795 91.3119C11.411 91.3119 11.0466 90.8714 11.0466 90.3229C11.0466 89.7584 11.411 89.342 11.9795 89.342C12.552 89.342 12.9164 89.7584 12.9164 90.3229C12.9164 90.8714 12.552 91.3119 11.9795 91.3119ZM13.9133 91.6882H14.3858V90.6953H14.9503C15.5509 90.6953 15.8712 90.2869 15.8712 89.8425C15.8712 89.394 15.5429 88.9656 14.9583 88.9656H13.9133V91.6882ZM14.3858 90.2909V89.378H14.9103C15.2106 89.378 15.3948 89.5822 15.3948 89.8384C15.3948 90.0707 15.2426 90.2909 14.8983 90.2909H14.3858ZM17.1485 88.9496H17.0043L15.7191 91.6802V91.6882H16.2156L16.4398 91.1958H17.713L17.9372 91.6882H18.4297V91.6762L17.1485 88.9496ZM17.0764 89.7103C17.1405 89.8865 17.1965 90.0306 17.2606 90.1748L17.5568 90.8234H16.5959L16.8922 90.1748C16.9563 90.0266 17.0123 89.8865 17.0764 89.7103ZM20.9481 91.2518V88.9656H20.4756V91.2518H19.2545V88.9656H18.782V91.6882H20.852V92.2968H21.2964V91.2518H20.9481ZM23.9029 88.9496L22.4856 90.459C22.3735 90.5752 22.2654 90.6993 22.1693 90.8154C22.1773 90.6873 22.1813 90.5592 22.1813 90.431V88.9656H21.7088V91.7042H21.849L23.2703 90.1788C23.3704 90.0707 23.4785 89.9546 23.5826 89.8345C23.5746 89.9666 23.5706 90.0987 23.5706 90.2228V91.6882H24.0431V88.9496H23.9029ZM25.4885 88.9656C24.9079 88.9656 24.5636 89.342 24.5636 89.8104C24.5636 90.1628 24.7678 90.4871 25.1521 90.5992L24.4515 91.6722V91.6882H24.976L25.6406 90.6432H26.1091V91.6882H26.5815V88.9656H25.4885ZM26.1091 90.2589H25.5325C25.2242 90.2589 25.036 90.0827 25.036 89.8144C25.036 89.5502 25.2242 89.374 25.5325 89.374H26.1091V90.2589ZM29.8126 88.9656L29.144 90.4871L28.3472 88.9656H27.8347L28.9078 90.9796C28.7676 91.1958 28.5834 91.2958 28.2231 91.3079L28.2631 91.7163C28.9117 91.6842 29.144 91.488 29.4523 90.8314L30.3131 88.9656H29.8126ZM30.6614 91.6882H31.1339V89.402H32.3631V91.6882H32.8395V88.9656H30.6614V91.6882ZM33.5002 91.6882H33.9726V90.6953H34.5372C35.1377 90.6953 35.458 90.2869 35.458 89.8425C35.458 89.394 35.1297 88.9656 34.5452 88.9656H33.5002V91.6882ZM33.9726 90.2909V89.378H34.4971C34.7974 89.378 34.9816 89.5822 34.9816 89.8384C34.9816 90.0707 34.8294 90.2909 34.4851 90.2909H33.9726ZM36.7353 88.9496H36.5911L35.3059 91.6802V91.6882H35.8024L36.0266 91.1958H37.2998L37.524 91.6882H38.0165V91.6762L36.7353 88.9496ZM36.6632 89.7103C36.7272 89.8865 36.7833 90.0306 36.8474 90.1748L37.1437 90.8234H36.1827L36.479 90.1748C36.5431 90.0266 36.5991 89.8865 36.6632 89.7103ZM39.9503 90.2629C40.1465 90.1387 40.2747 89.9385 40.2747 89.6783C40.2747 89.2539 39.9303 88.9656 39.4539 88.9656H38.3688V91.6882H39.5299C40.0304 91.6882 40.3828 91.3879 40.3828 90.9355C40.3828 90.6232 40.2106 90.379 39.9503 90.2629ZM38.8373 89.354H39.3738C39.626 89.354 39.7982 89.4901 39.7982 89.7143C39.7982 89.9546 39.6501 90.0947 39.3818 90.0947H38.8373V89.354ZM39.4539 91.2999H38.8373V90.4791H39.4699C39.7301 90.4791 39.9063 90.6392 39.9063 90.8874C39.9063 91.1437 39.7221 91.2999 39.4539 91.2999ZM40.663 91.7203C41.2516 91.6882 41.5519 91.3559 41.656 90.447L41.7721 89.402H42.6009V91.6882H43.0733V88.9656H41.3637L41.2156 90.2949C41.1315 91.0276 40.9994 91.2919 40.599 91.3239L40.663 91.7203ZM44.2104 91.2718V90.5071H45.2955V90.1027H44.2104V89.382H45.4516V88.9656H43.738V91.6882H45.4877V91.2718H44.2104ZM45.9841 91.6882H46.4566V90.5351H47.7819V91.6882H48.2543V88.9656H47.7819V90.0987H46.4566V88.9656H45.9841V91.6882ZM51.1131 88.9496L49.6957 90.459C49.5836 90.5752 49.4755 90.6993 49.3794 90.8154C49.3874 90.6873 49.3914 90.5592 49.3914 90.431V88.9656H48.919V91.7042H49.0591L50.4805 90.1788C50.5806 90.0707 50.6887 89.9546 50.7928 89.8345C50.7848 89.9666 50.7808 90.0987 50.7808 90.2228V91.6882H51.2532V88.9496H51.1131ZM52.6986 88.9656C52.118 88.9656 51.7737 89.342 51.7737 89.8104C51.7737 90.1628 51.9779 90.4871 52.3623 90.5992L51.6616 91.6722V91.6882H52.1861L52.8507 90.6432H53.3192V91.6882H53.7916V88.9656H52.6986ZM53.3192 90.2589H52.7426C52.4343 90.2589 52.2461 90.0827 52.2461 89.8144C52.2461 89.5502 52.4343 89.374 52.7426 89.374H53.3192V90.2589ZM0 97.0374H1.09304C1.6696 97.0374 2.00992 96.649 2.00992 96.2126C2.00992 95.7842 1.6696 95.3918 1.09304 95.3918H0.47245V94.7351H1.7737V94.3147H0V97.0374ZM0.47245 96.641V95.7842H1.04099C1.34928 95.7842 1.53747 95.9483 1.53747 96.2126C1.53747 96.4808 1.34928 96.641 1.04099 96.641H0.47245ZM4.68449 94.2987L3.26714 95.8082C3.15501 95.9243 3.04692 96.0484 2.95083 96.1645C2.95884 96.0364 2.96284 95.9083 2.96284 95.7802V94.3147H2.49039V97.0534H2.63053L4.05189 95.5279C4.15199 95.4198 4.26008 95.3037 4.36419 95.1836C4.35617 95.3157 4.35218 95.4478 4.35218 95.5719V97.0374H4.82463V94.2987H4.68449ZM6.28202 97.0814C6.86658 97.0814 7.24695 96.717 7.24695 96.2766C7.24695 95.9483 7.05878 95.7081 6.75848 95.6C6.96668 95.5119 7.12684 95.2877 7.12684 95.0154C7.12684 94.587 6.73445 94.2667 6.21396 94.2667C5.92569 94.2667 5.6374 94.3548 5.35314 94.583L5.55733 94.9113C5.74951 94.7592 5.95772 94.6911 6.16992 94.6911C6.45819 94.6911 6.65039 94.8312 6.65039 95.0675C6.65039 95.2837 6.51024 95.4398 6.262 95.4398H5.91366V95.8282H6.27802C6.5743 95.8282 6.7745 95.9723 6.7745 96.2326C6.7745 96.4969 6.54227 96.661 6.254 96.661C5.92168 96.661 5.65743 96.5369 5.47725 96.3767L5.25703 96.713C5.5333 96.9693 5.86161 97.0814 6.28202 97.0814ZM7.75543 97.0374H8.2279V95.8843H9.55317V97.0374H10.0256V94.3147H9.55317V95.4478H8.2279V94.3147H7.75543V97.0374ZM11.1627 96.621V95.8562H12.2478V95.4518H11.1627V94.7311H12.4039V94.3147H10.6903V97.0374H12.4399V96.621H11.1627ZM14.1896 97.0894C14.6541 97.0894 15.0224 96.9052 15.2867 96.5809L14.9904 96.2766C14.8102 96.5128 14.546 96.661 14.1976 96.661C13.6451 96.661 13.2727 96.2286 13.2727 95.6721C13.2727 95.0995 13.6571 94.6911 14.2136 94.6911C14.546 94.6911 14.7862 94.8032 14.9824 94.9834L15.2266 94.6631C14.9223 94.3868 14.614 94.2627 14.2016 94.2627C13.3768 94.2627 12.7883 94.8553 12.7883 95.6721C12.7883 96.4568 13.3488 97.0894 14.1896 97.0894ZM16.8682 97.0894C17.709 97.0894 18.2856 96.4688 18.2856 95.6721C18.2856 94.8553 17.709 94.2627 16.8682 94.2627C16.0354 94.2627 15.4508 94.8553 15.4508 95.6721C15.4508 96.4688 16.0354 97.0894 16.8682 97.0894ZM16.8682 96.661C16.2996 96.661 15.9353 96.2206 15.9353 95.6721C15.9353 95.1075 16.2996 94.6911 16.8682 94.6911C17.4408 94.6911 17.8051 95.1075 17.8051 95.6721C17.8051 96.2206 17.4408 96.661 16.8682 96.661ZM21.2924 94.2947H21.1523L20.3275 95.5519C20.2675 95.644 20.2074 95.7401 20.1514 95.8362C20.0953 95.7401 20.0352 95.644 19.9752 95.5519L19.1544 94.2947H19.0143L18.6139 97.0374H19.0783L19.2865 95.5679C19.2985 95.4719 19.3146 95.3838 19.3185 95.2797C19.3706 95.3718 19.4267 95.4599 19.4867 95.5439L20.1033 96.4888H20.1994L20.82 95.5439C20.876 95.4599 20.9321 95.3758 20.9801 95.2877C20.9882 95.3798 21.0002 95.4679 21.0122 95.564L21.2284 97.0374H21.6928L21.2924 94.2947Z" fill="white"/>
<path fill-rule="evenodd" clip-rule="evenodd" d="M25.8723 -6.10352e-05L1.12402 15.8388L23.2954 25.6492L49.3996 6.86207L25.8723 -6.10352e-05Z" fill="#464646"/>
<path fill-rule="evenodd" clip-rule="evenodd" d="M25.8723 -6.10352e-05L1.12402 15.8388L1.81697 16.1455L48.3852 7.59209L49.3996 6.86205L25.8723 -6.10352e-05Z" fill="#313131" fill-opacity="0.6"/>
<path fill-rule="evenodd" clip-rule="evenodd" d="M0.65979 17.692L10.864 43.7913L31.6604 55.0641L22.6412 27.4183L0.65979 17.692Z" fill="#464646"/>
<path fill-rule="evenodd" clip-rule="evenodd" d="M1.5296 18.0769L31.2352 53.7611L22.6411 27.4183L1.5296 18.0769Z" fill="black" fill-opacity="0.521569"/>
<path fill-rule="evenodd" clip-rule="evenodd" d="M33.6387 55.0621L56.3001 35.9788L50.7457 8.20703L24.5121 27.0872L33.6387 55.0621Z" fill="#B3B3B3"/>
<path fill-rule="evenodd" clip-rule="evenodd" d="M36.081 16.4474H2.49933L23.2954 25.6492L36.081 16.4474Z" fill="#717171"/>
<path fill-rule="evenodd" clip-rule="evenodd" d="M56.3 35.9788L39.5981 16.2299L44.6587 12.5878L46.605 11.1871L50.7457 8.207L56.3 35.9788ZM38.3817 14.7915L25.8723 -6.10352e-05L49.3996 6.86205L47.1348 8.49202L45.741 9.49507L38.3817 14.7915Z" fill="#4B4B4B" fill-opacity="0.439216"/>
<path fill-rule="evenodd" clip-rule="evenodd" d="M33.4598 54.5139L52.3819 16.4474H39.2959L24.5121 27.0872L33.4598 54.5139Z" fill="#FEFEFE" fill-opacity="0.65098"/>
</svg>
