<svg width="15" height="15" viewBox="0 0 15 15" fill="none" xmlns="http://www.w3.org/2000/svg">
<path d="M9.9998 7.5C9.9998 8.87684 8.87684 9.9998 7.5 9.9998C6.12316 9.9998 5.0002 8.87684 5.0002 7.5C5.0002 6.12316 6.12316 5.0002 7.5 5.0002C8.87684 5.0002 9.9998 6.12316 9.9998 7.5ZM11.3473 7.5C11.3473 5.37127 9.62873 3.65266 7.5 3.65266C5.37127 3.65266 3.65266 5.37127 3.65266 7.5C3.65266 9.62873 5.37127 11.3473 7.5 11.3473C9.62873 11.3473 11.3473 9.62873 11.3473 7.5ZM12.4019 3.49642C12.4019 2.99841 12.0016 2.59806 11.5036 2.59806C11.0056 2.59806 10.6052 2.99841 10.6052 3.49642C10.6052 3.99443 11.0056 4.39478 11.5036 4.39478C12.0016 4.39478 12.4019 3.99443 12.4019 3.49642ZM7.5 1.34816C8.59366 1.34816 10.9372 1.26027 11.9235 1.65087C12.2652 1.78757 12.5191 1.95358 12.7828 2.21723C13.0464 2.48088 13.2124 2.73476 13.3491 3.07653C13.7397 4.06278 13.6518 6.40634 13.6518 7.5C13.6518 8.59366 13.7397 10.9372 13.3491 11.9235C13.2124 12.2652 13.0464 12.5191 12.7828 12.7828C12.5191 13.0464 12.2652 13.2124 11.9235 13.3491C10.9372 13.7397 8.59366 13.6518 7.5 13.6518C6.40634 13.6518 4.06278 13.7397 3.07653 13.3491C2.73476 13.2124 2.48088 13.0464 2.21723 12.7828C1.95358 12.5191 1.78757 12.2652 1.65087 11.9235C1.26027 10.9372 1.34816 8.59366 1.34816 7.5C1.34816 6.40634 1.26027 4.06278 1.65087 3.07653C1.78757 2.73476 1.95358 2.48088 2.21723 2.21723C2.48088 1.95358 2.73476 1.78757 3.07653 1.65087C4.06278 1.26027 6.40634 1.34816 7.5 1.34816ZM14.9994 7.5C14.9994 6.46493 15.0092 5.43962 14.9506 4.40455C14.892 3.20347 14.6186 2.13911 13.7397 1.26027C12.8609 0.381438 11.7965 0.108023 10.5955 0.049435C9.56038 -0.00915428 8.53507 0.000610251 7.5 0.000610251C6.46493 0.000610251 5.43962 -0.00915428 4.40455 0.049435C3.20347 0.108023 2.13911 0.381438 1.26027 1.26027C0.381439 2.13911 0.108023 3.20347 0.0494344 4.40455C-0.00915453 5.43962 0.000610302 6.46493 0.000610302 7.5C0.000610302 8.53507 -0.00915453 9.56038 0.0494344 10.5955C0.108023 11.7965 0.381439 12.8609 1.26027 13.7397C2.13911 14.6186 3.20347 14.892 4.40455 14.9506C5.43962 15.0092 6.46493 14.9994 7.5 14.9994C8.53507 14.9994 9.56038 15.0092 10.5955 14.9506C11.7965 14.892 12.8609 14.6186 13.7397 13.7397C14.6186 12.8609 14.892 11.7965 14.9506 10.5955C15.0092 9.56038 14.9994 8.53507 14.9994 7.5Z" fill="white"/>
</svg>
