<svg width="110" height="90" viewBox="0 0 110 90" fill="none" xmlns="http://www.w3.org/2000/svg">
<path d="M1.0104 38.2044C3.89725 37.8435 6.74802 37.5187 9.63488 37.1579C11.8361 36.9052 14.0373 36.5805 16.2746 36.3639C16.9603 36.2918 17.1046 36.0391 17.1046 35.3896C17.0324 30.5899 16.9242 25.8263 16.8881 21.0266C16.852 14.8916 16.8159 8.72061 16.7798 2.58567C16.7798 2.26088 16.7438 1.9 16.8159 1.57521C16.9964 0.276047 18.2233 -0.301359 19.3419 0.420398C20.4606 1.10607 21.5431 1.9 22.6257 2.65785C31.2863 8.72061 39.9108 14.8195 48.5713 20.9183C49.6539 21.6762 49.6539 21.6762 50.7725 20.8822C60.1548 14.2421 69.5371 7.5658 78.9194 0.925629C79.2802 0.673014 79.6772 0.420398 80.0741 0.239959C80.7958 -0.0848321 81.5175 0.167783 81.9145 0.817365C82.3475 1.46695 82.2753 2.11653 81.734 2.65785C81.4093 2.98264 81.0484 3.23525 80.6876 3.52396C70.5114 10.7415 60.3713 17.923 50.2313 25.1406C49.7621 25.4654 49.4735 25.3932 49.0765 25.1045C39.7303 18.5365 30.3841 11.9685 21.074 5.43661C20.9658 5.36444 20.8936 5.29226 20.7853 5.25617C20.6049 5.184 20.3884 5.11182 20.1719 5.03965C20.0997 5.25617 20.0275 5.43661 20.0275 5.65314C20.0275 7.78233 20.0636 9.87542 20.0997 12.0046C20.1719 20.5213 20.208 29.0381 20.2801 37.5548C20.2801 38.0961 20.2801 38.457 19.5584 38.4209C13.7126 38.3848 7.90276 38.4209 2.05688 38.4209C1.73211 38.4209 1.40734 38.4209 1.08257 38.4209C1.0104 38.3127 1.0104 38.2405 1.0104 38.2044ZM3.93334 58.7384V50.5104L7.57799 56.104H7.65016L11.3309 50.4743V58.7384H15.3003V44.3393H11.1144L7.68625 49.8969L4.25811 44.3393H0V58.7384H3.93334ZM19.4141 57.3671C20.5688 58.4497 22.2288 59.0271 24.3217 59.0271C25.3682 59.0271 26.2704 58.8828 27.1003 58.6301C27.9303 58.3775 28.6159 57.9806 29.2294 57.4392C29.8429 56.8979 30.2759 56.2123 30.6007 55.3461C30.9254 54.48 31.0698 53.5057 31.0698 52.3509V44.3754H27.0282V52.4952C27.0282 53.4696 26.8117 54.2274 26.3425 54.7327C25.8734 55.2379 25.2239 55.4905 24.3939 55.4905C23.5639 55.4905 22.9144 55.2379 22.4453 54.7327C21.9762 54.2274 21.7597 53.4696 21.7597 52.423V44.4115H17.682V52.4952C17.682 54.6244 18.2593 56.2483 19.4141 57.3671ZM37.4208 58.7384V54.3718H39.153L42.0398 58.7384H46.6588L43.2306 53.6861C44.1689 53.2891 44.8906 52.7478 45.3958 51.99C45.901 51.2321 46.1897 50.366 46.1897 49.3195C46.1897 47.876 45.7566 46.7572 44.9267 45.8911C43.8802 44.8446 42.3285 44.3393 40.2355 44.3393H33.4514V58.7384H37.4208ZM37.4208 47.8399H40.019C40.7046 47.8399 41.2459 47.9842 41.6068 48.2729C41.9676 48.5616 42.1842 48.9947 42.1842 49.536C42.1842 50.0773 42.0037 50.5104 41.6068 50.7991C41.2459 51.1239 40.7046 51.2682 40.019 51.2682H37.3848V47.8399H37.4208ZM51.2777 58.7384L52.2881 56.1762H57.8453L58.8918 58.7384H63.186L57.0515 44.2311H53.1903L47.0557 58.7384H51.2777ZM55.1028 48.9586L56.7267 53.0726H53.479L55.1028 48.9586ZM68.0937 47.8399V58.7384H72.0631V47.8399H76.3934V44.3393H63.7634V47.8399H68.0937ZM78.6668 55.3101C79.3163 56.4649 80.2545 57.3671 81.4454 58.0167C82.6362 58.6662 83.9353 59.0271 85.4148 59.0271C86.4974 59.0271 87.5438 58.8467 88.4821 58.4497C89.4564 58.0527 90.2503 57.5114 90.9359 56.8618C91.6215 56.2123 92.1628 55.3822 92.5598 54.48C92.9567 53.5418 93.1732 52.6035 93.1732 51.5569C93.1732 50.5104 92.9928 49.536 92.5958 48.6338C92.1989 47.7316 91.6576 46.9016 91.0081 46.252C90.3224 45.6024 89.5286 45.0611 88.5542 44.6641C87.5799 44.2672 86.5695 44.0867 85.487 44.0867C84.4044 44.0867 83.3579 44.2672 82.4197 44.6641C81.4815 45.0611 80.6154 45.6024 79.9659 46.252C79.2802 46.9377 78.7389 47.7316 78.342 48.6338C77.9451 49.5721 77.7285 50.5104 77.7285 51.5569C77.6564 52.9283 77.9811 54.1553 78.6668 55.3101ZM82.7805 48.7782C83.4662 48.0203 84.3322 47.6594 85.4148 47.6594C86.4974 47.6594 87.3634 48.0564 88.0851 48.8142C88.7708 49.5721 89.1316 50.5104 89.1316 51.5569C89.1316 52.6396 88.8069 53.5778 88.1212 54.2996C87.4356 55.0574 86.5695 55.4183 85.487 55.4183C84.4044 55.4183 83.5383 55.0214 82.8527 54.2635C82.1671 53.5057 81.8062 52.5674 81.8062 51.5208C81.7341 50.4382 82.0949 49.536 82.7805 48.7782ZM99.9212 58.8467H103.638L109.484 44.3393H105.118L101.834 53.4696L98.5861 44.3393H94.1114L99.9212 58.8467Z" fill="white"/>
<path d="M107.789 64.4047C106.67 64.5129 105.515 64.6573 104.397 64.7655C99.8136 65.2708 95.2308 65.776 90.6118 66.2812C89.9983 66.3534 89.5653 66.5699 89.2766 67.1473C86.1732 73.968 80.9408 78.7316 74.6619 82.5208C69.0326 85.913 62.9341 88.0783 56.583 89.7023C55.0674 90.0992 53.6962 90.0992 52.2166 89.7023C44.8191 87.8257 37.8185 85.0469 31.4674 80.7164C26.3793 77.252 22.3377 72.9214 19.7035 67.2917C19.3787 66.5699 18.8735 66.2812 18.0796 66.173C12.9193 65.6317 7.7591 65.0542 2.63493 64.4768C2.49059 64.4768 2.31016 64.4047 2.2019 64.2242C2.59885 64.2242 3.03187 64.2242 3.42882 64.2242C9.23861 64.2242 15.0484 64.2603 20.8582 64.2242C21.5438 64.2242 21.9047 64.4408 22.1934 65.0903C24.1059 69.7818 27.2814 73.4988 31.2148 76.6024C37.3493 81.4381 44.4221 84.253 51.8197 86.4183C54.4179 87.1761 56.6552 86.5265 58.9647 85.8409C65.8209 83.8199 72.2803 80.9329 77.9096 76.458C81.7347 73.4266 84.7659 69.7818 86.6424 65.2347C86.931 64.5129 87.3641 64.2242 88.158 64.2603C94.2204 64.2964 100.283 64.2603 106.345 64.2603C106.814 64.2603 107.283 64.2603 107.752 64.2603C107.752 64.2964 107.789 64.3325 107.789 64.4047ZM54.2374 25.5019C55.7891 25.5019 57.3408 25.538 58.8564 25.4658C59.2173 25.4658 59.6142 25.2493 59.939 25.0328C64.0166 22.1818 68.0582 19.3309 72.0998 16.48C77.4766 12.6907 82.8534 8.9015 88.194 5.14836C88.3384 5.04009 88.591 5.04009 88.8075 4.96792C88.8436 5.14836 88.9158 5.3288 88.9158 5.50924C88.8436 10.5976 88.7714 15.7221 88.7353 20.8105C88.6992 26.4041 88.6992 32.0338 88.6271 37.6275C88.6271 38.2409 88.9158 38.277 89.3849 38.277C95.4834 38.277 101.582 38.277 107.644 38.277C107.933 38.277 108.258 38.2409 108.546 38.2409C103.278 37.4831 98.0454 36.7974 92.7769 36.22C91.983 36.1479 91.7304 35.8952 91.7665 35.0652C91.8387 31.7812 91.9109 28.5333 91.9109 25.2493C91.983 17.7069 92.0191 10.1285 92.0913 2.58612C92.0913 1.68392 92.1274 0.745636 91.1892 0.204317C90.1788 -0.337001 89.457 0.312581 88.7353 0.817811C77.9096 8.43235 67.0839 16.083 56.2582 23.6975C55.5365 24.2028 54.8148 24.7441 54.0931 25.2493C54.2013 25.3937 54.2013 25.4297 54.2374 25.5019Z" fill="white"/>
<path d="M33.7767 70.2144V72.3797H32.3694V66.1365H34.5706C36.1584 66.1365 36.9523 66.7861 36.9523 68.1213C36.9523 68.7348 36.7357 69.2761 36.2666 69.637C35.7975 69.9979 35.2202 70.2144 34.4624 70.2144H33.7767ZM33.7767 67.183V69.1318H34.318C35.0758 69.1318 35.4367 68.807 35.4367 68.1574C35.4367 67.5078 35.0758 67.183 34.318 67.183H33.7767Z" fill="white"/>
<path d="M43.3767 72.3797H41.825L41.392 70.9723H39.1547L38.7217 72.3797H37.2061L39.4795 66.1365H41.1394L43.3767 72.3797ZM41.0672 69.8896L40.3816 67.7965C40.3455 67.6522 40.3094 67.4356 40.2733 67.2191H40.2373C40.2373 67.3996 40.2012 67.58 40.129 67.7604L39.4434 69.8896H41.0672Z" fill="white"/>
<path d="M49.4032 72.3799H47.7794L46.8051 70.7559C46.7329 70.6477 46.6607 70.5394 46.5885 70.4311C46.5164 70.3229 46.4442 70.2507 46.372 70.1785C46.2999 70.1063 46.2277 70.0703 46.1555 70.0342C46.0833 69.9981 46.0112 69.962 45.9029 69.962H45.506V72.3438H44.0986V66.1006H46.3359C47.8515 66.1006 48.6093 66.678 48.6093 67.7967C48.6093 68.0132 48.5733 68.2298 48.5011 68.4102C48.4289 68.5907 48.3567 68.7711 48.2124 68.9154C48.1041 69.0598 47.9598 69.2041 47.7794 69.3124C47.5989 69.4207 47.4185 69.4928 47.202 69.565C47.3103 69.6011 47.3824 69.6372 47.4546 69.7094C47.5268 69.7815 47.635 69.8537 47.7072 69.9259C47.7794 69.9981 47.8515 70.1063 47.9237 70.2146C47.9959 70.3229 48.0681 70.4311 48.1402 70.5033L49.4032 72.3799ZM45.5421 67.1471V68.8794H46.1555C46.4442 68.8794 46.6968 68.8072 46.8772 68.6267C47.0577 68.4463 47.1659 68.2298 47.1659 67.9772C47.1659 67.4358 46.8411 67.1471 46.1916 67.1471H45.5421Z" fill="white"/>
<path d="M54.3812 67.2554H52.613V72.3799H51.2057V67.2554H49.4375V66.1006H54.4173V67.2554H54.3812Z" fill="white"/>
<path d="M60.8418 72.3797H59.4345L56.8724 68.4461C56.728 68.2296 56.6198 68.0491 56.5476 67.9409C56.5837 68.1574 56.5837 68.4822 56.5837 68.9513V72.3797H55.2485V66.1365H56.7641L59.254 69.9618C59.3623 70.1422 59.4706 70.2866 59.5788 70.467C59.5427 70.3227 59.5427 70.034 59.5427 69.6009V66.1365H60.8779V72.3797H60.8418Z" fill="white"/>
<path d="M66.0371 72.3797H62.2842V66.1365H65.8927V67.2913H63.6915V68.6987H65.7484V69.8535H63.6915V71.2971H66.0371V72.3797Z" fill="white"/>
<path d="M72.2807 72.3799H70.6568L69.6825 70.7559C69.6103 70.6477 69.5382 70.5394 69.466 70.4311C69.3938 70.3229 69.3216 70.2507 69.2495 70.1785C69.1773 70.1063 69.1051 70.0703 69.033 70.0342C68.9608 69.9981 68.8886 69.962 68.7804 69.962H68.3834V72.3438H66.9761V66.1006H69.2134C70.729 66.1006 71.4868 66.678 71.4868 67.7967C71.4868 68.0132 71.4507 68.2298 71.3785 68.4102C71.3064 68.5907 71.2342 68.7711 71.0898 68.9154C70.9816 69.0598 70.8372 69.2041 70.6568 69.3124C70.4764 69.4207 70.296 69.4928 70.0794 69.565C70.1877 69.6011 70.2599 69.6372 70.3681 69.7094C70.4764 69.7815 70.5486 69.8537 70.6207 69.9259C70.6929 69.9981 70.7651 70.1063 70.8372 70.2146C70.9094 70.3229 70.9816 70.4311 71.0538 70.5033L72.2807 72.3799ZM68.4556 67.1471V68.8794H69.069C69.3577 68.8794 69.6103 68.8072 69.7908 68.6267C69.9712 68.4463 70.0794 68.2298 70.0794 67.9772C70.0794 67.4358 69.7547 67.1471 69.1051 67.1471H68.4556Z" fill="white"/>
<path d="M72.5681 72.1277V70.7203C72.8207 70.9368 73.1094 71.0811 73.398 71.1894C73.6867 71.2977 74.0115 71.3338 74.3002 71.3338C74.4806 71.3338 74.625 71.3338 74.7693 71.2977C74.9136 71.2616 75.0219 71.2255 75.0941 71.1533C75.1662 71.0811 75.2384 71.0451 75.2745 70.9368C75.3106 70.8646 75.3467 70.7924 75.3467 70.6842C75.3467 70.5759 75.3106 70.4677 75.2384 70.3594C75.1662 70.2511 75.058 70.179 74.9497 70.1068C74.8415 70.0346 74.6971 69.9624 74.5167 69.8542C74.3363 69.782 74.1558 69.7098 73.9754 69.6376C73.4702 69.4211 73.1094 69.1685 72.8928 68.8798C72.6402 68.5911 72.532 68.2302 72.532 67.7971C72.532 67.4724 72.6042 67.1837 72.7124 66.9671C72.8568 66.7506 73.0372 66.5341 73.2537 66.3897C73.4702 66.2454 73.7228 66.1371 74.0476 66.0649C74.3363 65.9928 74.661 65.9567 74.9858 65.9567C75.3106 65.9567 75.5993 65.9928 75.8519 66.0288C76.1045 66.0649 76.321 66.1371 76.5375 66.2093V67.5084C76.4292 67.4363 76.321 67.3641 76.2127 67.328C76.1045 67.2558 75.9601 67.2197 75.8158 67.1837C75.6714 67.1476 75.5632 67.1115 75.4188 67.1115C75.2745 67.1115 75.1662 67.0754 75.058 67.0754C74.9136 67.0754 74.7693 67.0754 74.625 67.1115C74.4806 67.1476 74.3724 67.1837 74.3002 67.2558C74.1919 67.328 74.1558 67.3641 74.0837 67.4363C74.0476 67.5084 74.0115 67.6167 74.0115 67.6889C74.0115 67.7971 74.0476 67.8693 74.0837 67.9776C74.1558 68.0498 74.228 68.1219 74.3363 68.2302C74.4445 68.3024 74.5528 68.3746 74.6971 68.4467C74.8415 68.5189 75.0219 68.5911 75.2023 68.6633C75.4549 68.7715 75.6714 68.8798 75.8879 68.988C76.1045 69.0963 76.2488 69.2407 76.3932 69.385C76.5375 69.5294 76.6457 69.7098 76.7179 69.8902C76.7901 70.0707 76.8262 70.2872 76.8262 70.5398C76.8262 70.9007 76.754 71.1894 76.6097 71.4059C76.4653 71.6586 76.2849 71.839 76.0684 71.9833C75.8519 72.1277 75.5632 72.236 75.2745 72.3081C74.9858 72.3803 74.661 72.4164 74.3363 72.4164C73.9754 72.4164 73.6506 72.3803 73.362 72.3442C73.0733 72.3081 72.8207 72.236 72.5681 72.1277Z" fill="white"/>
</svg>
