<svg width="135" height="110" viewBox="0 0 135 110" fill="none" xmlns="http://www.w3.org/2000/svg">
<path d="M1.238 46.6953C4.77515 46.2542 8.26808 45.8572 11.8052 45.4161C14.5023 45.1074 17.1994 44.7104 19.9407 44.4458C20.7807 44.3576 20.9576 44.0488 20.9576 43.2549C20.8692 37.3886 20.7365 31.5664 20.6923 25.7001C20.6481 18.2019 20.6039 10.6595 20.5597 3.16124C20.5597 2.76427 20.5155 2.32319 20.6039 1.92623C20.825 0.33836 22.3282 -0.367358 23.6989 0.51479C25.0695 1.35283 26.396 2.32319 27.7224 3.24945C38.3338 10.6595 48.9011 18.1136 59.5125 25.5678C60.8389 26.4941 60.8389 26.4941 62.2096 25.5237C73.7053 17.4079 85.201 9.24806 96.6968 1.13229C97.1389 0.823542 97.6253 0.51479 98.1116 0.294253C98.9959 -0.102714 99.8802 0.206038 100.367 0.999972C100.897 1.79391 100.809 2.58784 100.145 3.24945C99.7476 3.64642 99.3054 3.95517 98.8633 4.30803C86.3948 13.1295 73.9706 21.9069 61.5464 30.7284C60.9716 31.1253 60.6179 31.0371 60.1315 30.6843C48.68 22.6567 37.2285 14.6292 25.8212 6.64572C25.6885 6.55751 25.6001 6.46929 25.4675 6.42518C25.2464 6.33697 24.9811 6.24875 24.7158 6.16054C24.6274 6.42518 24.539 6.64572 24.539 6.91037C24.539 9.5127 24.5832 12.0709 24.6274 14.6733C24.7158 25.0826 24.76 35.492 24.8485 45.9013C24.8485 46.5629 24.8485 47.004 23.9642 46.9599C16.8014 46.9158 9.68294 46.9599 2.52022 46.9599C2.12229 46.9599 1.72436 46.9599 1.32643 46.9599C1.238 46.8276 1.238 46.7394 1.238 46.6953ZM4.81936 71.7924V61.7359L9.28501 68.5725H9.37344L13.8833 61.6918V71.7924H18.7469V54.1935H13.618L9.41766 60.9861L5.21729 54.1935H0V71.7924H4.81936ZM23.7873 70.1163C25.2022 71.4395 27.236 72.1452 29.8005 72.1452C31.0827 72.1452 32.188 71.9688 33.205 71.66C34.2219 71.3513 35.062 70.8661 35.8136 70.2045C36.5653 69.5429 37.0958 68.7048 37.4938 67.6463C37.8917 66.5877 38.0685 65.3968 38.0685 63.9854V54.2376H33.1165V64.1618C33.1165 65.3527 32.8513 66.2789 32.2765 66.8964C31.7017 67.5139 30.9058 67.8227 29.8889 67.8227C28.872 67.8227 28.0761 67.5139 27.5013 66.8964C26.9265 66.2789 26.6612 65.3527 26.6612 64.0736V54.2817H21.665V64.1618C21.665 66.7641 22.3725 68.749 23.7873 70.1163ZM45.8503 71.7924V66.4554H47.9726L51.5097 71.7924H57.1691L52.9688 65.6173C54.1184 65.1322 55.0026 64.4705 55.6216 63.5443C56.2406 62.618 56.5944 61.5594 56.5944 60.2803C56.5944 58.516 56.0638 57.1487 55.0469 56.0901C53.7646 54.811 51.8634 54.1935 49.299 54.1935H40.9867V71.7924H45.8503ZM49.0337 58.4719C49.8738 58.4719 50.537 58.6484 50.9791 59.0012C51.4213 59.3541 51.6866 59.8834 51.6866 60.545C51.6866 61.2066 51.4655 61.7359 50.9791 62.0887C50.537 62.4857 49.8738 62.6621 49.0337 62.6621H45.8061V58.4719H49.0337ZM62.8286 71.7924L64.0666 68.6608H70.8756L72.1578 71.7924H77.4193L69.9029 54.0612H65.172L57.6555 71.7924H62.8286ZM67.5237 59.7282L69.505 64.8675H65.5257L67.5237 59.7282ZM96.3873 67.6022C97.1831 69.0136 98.3327 70.1163 99.7918 70.9102C101.251 71.7042 102.843 72.1452 104.655 72.1452C105.982 72.1452 107.264 71.9247 108.414 71.4395C109.607 70.9543 110.58 70.2927 111.42 69.4988C112.26 68.7049 112.923 67.6904 113.41 66.5877C113.896 65.4409 114.161 64.2941 114.161 63.015C114.161 61.7359 113.94 60.545 113.454 59.4423C112.968 58.3396 112.304 57.3251 111.509 56.5312C110.669 55.7373 109.696 55.0757 108.502 54.5905C107.308 54.1053 106.07 53.8848 104.744 53.8848C103.417 53.8848 102.135 54.1053 100.986 54.5905C99.836 55.0757 98.7748 55.7373 97.979 56.5312C97.1389 57.3693 96.4757 58.3396 95.9894 59.4423C95.503 60.5891 95.2377 61.7359 95.2377 63.015C95.1493 64.6911 95.5472 66.1907 96.3873 67.6022ZM101.428 59.6187C102.268 58.6925 103.329 58.2514 104.655 58.2514C105.982 58.2514 107.043 58.7366 107.927 59.6628C108.767 60.5891 109.209 61.7359 109.209 63.015C109.209 64.3382 108.812 65.485 107.971 66.3672C107.131 67.2934 106.07 67.7345 104.744 67.7345C103.417 67.7345 102.356 67.2493 101.516 66.3231C100.676 65.3968 100.234 64.25 100.234 62.9709C100.146 61.6477 100.588 60.545 101.428 59.6187ZM122.43 71.9247H126.984L134.146 54.1935H128.796L124.773 65.3527L120.794 54.1935H115.311L122.43 71.9247Z" fill="#1062AF"/>
<path d="M83.4325 58.4725V71.7929H88.2961V58.4725H93.6018V54.194H78.1268V58.4725H87.8527H83.4325Z" fill="#1062AF"/>
<path d="M132.069 78.7168C130.698 78.8491 129.283 79.0256 127.913 79.1579C122.297 79.7754 116.682 80.3929 111.023 81.0104C110.271 81.0986 109.741 81.3633 109.387 82.069C105.584 90.4053 99.1734 96.2275 91.4801 100.859C84.5826 105.005 77.1104 107.651 69.3287 109.636C67.4717 110.121 65.7916 110.121 63.9788 109.636C54.9148 107.343 46.3372 103.946 38.5555 98.6534C32.3213 94.419 27.3693 89.1262 24.1416 82.2454C23.7437 81.3633 23.1247 81.0104 22.152 80.8781C15.8294 80.2165 9.5067 79.5107 3.22826 78.805C3.05141 78.805 2.83033 78.7168 2.69769 78.4963C3.18405 78.4963 3.71462 78.4963 4.20098 78.4963C11.3195 78.4963 18.438 78.5404 25.5565 78.4963C26.3966 78.4963 26.8387 78.7609 27.1924 79.5548C29.5358 85.2888 33.4267 89.8319 38.246 93.6251C45.7625 99.5355 54.4285 102.976 63.4924 105.622C66.6758 106.549 69.4171 105.755 72.2468 104.917C80.6476 102.447 88.5619 98.918 95.4594 93.4487C100.146 89.7437 103.86 85.2888 106.159 79.7313C106.513 78.8491 107.044 78.4963 108.016 78.5404C115.444 78.5845 122.872 78.5404 130.3 78.5404C130.875 78.5404 131.45 78.5404 132.025 78.5404C132.025 78.5845 132.069 78.6286 132.069 78.7168ZM66.4548 31.169C68.356 31.169 70.2572 31.2131 72.1142 31.1249C72.5564 31.1249 73.0427 30.8603 73.4406 30.5956C78.4369 27.1111 83.3889 23.6266 88.3409 20.1422C94.9288 15.5109 101.517 10.8796 108.06 6.29244C108.237 6.16011 108.547 6.16011 108.812 6.0719C108.856 6.29244 108.945 6.51297 108.945 6.73351C108.856 12.9527 108.768 19.2159 108.724 25.4351C108.679 32.2717 108.679 39.1525 108.591 45.9891C108.591 46.7389 108.945 46.783 109.52 46.783C116.992 46.783 124.464 46.783 131.892 46.783C132.246 46.783 132.644 46.7389 132.997 46.7389C126.542 45.8127 120.131 44.9746 113.676 44.2689C112.703 44.1807 112.393 43.872 112.438 42.8575C112.526 38.8437 112.615 34.874 112.615 30.8603C112.703 21.6418 112.747 12.3793 112.836 3.16081C112.836 2.05813 112.88 0.911332 111.73 0.249721C110.492 -0.41189 109.608 0.382044 108.724 0.999547C95.4594 10.3062 82.1951 19.657 68.9308 28.9636C68.0465 29.5811 67.1622 30.2428 66.2779 30.8603C66.4106 31.0367 66.4106 31.0808 66.4548 31.169Z" fill="#565658"/>
<path d="M41.3853 85.817V88.4635H39.6609V80.8329H42.358C44.3034 80.8329 45.2761 81.6268 45.2761 83.2588C45.2761 84.0086 45.0108 84.6702 44.4361 85.1113C43.8613 85.5524 43.1538 85.817 42.2253 85.817H41.3853ZM41.3853 82.112V84.4938H42.0485C42.977 84.4938 43.4191 84.0968 43.4191 83.3029C43.4191 82.509 42.977 82.112 42.0485 82.112H41.3853Z" fill="#565658"/>
<path d="M53.1478 88.4635H51.2466L50.716 86.7433H47.9747L47.4441 88.4635H45.5871L48.3726 80.8329H50.4065L53.1478 88.4635ZM50.3181 85.4201L49.478 82.8618C49.4338 82.6854 49.3896 82.4207 49.3454 82.1561H49.3011C49.3011 82.3766 49.2569 82.5972 49.1685 82.8177L48.3284 85.4201H50.3181Z" fill="#565658"/>
<path d="M60.5314 88.4634H58.5418L57.348 86.4786C57.2596 86.3463 57.1711 86.2139 57.0827 86.0816C56.9943 85.9493 56.9059 85.8611 56.8174 85.7729C56.729 85.6847 56.6406 85.6406 56.5521 85.5964C56.4637 85.5523 56.3753 85.5082 56.2426 85.5082H55.7563V88.4193H54.0319V80.7887H56.7732C58.6302 80.7887 59.5587 81.4944 59.5587 82.8618C59.5587 83.1264 59.5145 83.3911 59.4261 83.6116C59.3376 83.8321 59.2492 84.0527 59.0724 84.2291C58.9397 84.4055 58.7629 84.582 58.5418 84.7143C58.3207 84.8466 58.0996 84.9348 57.8344 85.023C57.967 85.0672 58.0554 85.1113 58.1439 85.1995C58.2323 85.2877 58.3649 85.3759 58.4534 85.4641C58.5418 85.5523 58.6302 85.6847 58.7186 85.817C58.8071 85.9493 58.8955 86.0816 58.9839 86.1698L60.5314 88.4634ZM55.8005 82.0678V84.185H56.5521C56.9059 84.185 57.2154 84.0968 57.4364 83.8763C57.6575 83.6557 57.7901 83.3911 57.7901 83.0823C57.7901 82.4207 57.3922 82.0678 56.5964 82.0678H55.8005Z" fill="#565658"/>
<path d="M64.4643 82.2002V88.4634H62.74V82.2002H60.5735V80.7887H66.6751V82.2002H64.4643Z" fill="#565658"/>
<path d="M72.8226 88.4635L69.6834 83.6558C69.5065 83.3911 69.3739 83.1706 69.2854 83.0383C69.3297 83.3029 69.3297 83.6999 69.3297 84.2733V88.4635H67.6937V80.8329H69.5507L72.6015 85.5083C72.7342 85.7288 72.8668 85.9052 72.9994 86.1258C72.9552 85.9493 72.9552 85.5965 72.9552 85.0672V80.8329H74.5912V88.4635H72.8226Z" fill="#565658"/>
<path d="M80.9126 88.4635H76.3143V80.8329H80.7357V82.2443H78.0386V83.9645H80.5588V85.376H78.0386V87.1403H80.9126V88.4635Z" fill="#565658"/>
<path d="M88.5624 88.4634H86.5728L85.379 86.4786C85.2906 86.3463 85.2021 86.2139 85.1137 86.0816C85.0253 85.9493 84.9369 85.8611 84.8484 85.7729C84.76 85.6847 84.6716 85.6406 84.5832 85.5964C84.4947 85.5523 84.4063 85.5082 84.2737 85.5082H83.7873V88.4193H82.0629V80.7887H84.8042C86.6612 80.7887 87.5897 81.4944 87.5897 82.8618C87.5897 83.1264 87.5455 83.3911 87.4571 83.6116C87.3687 83.8321 87.2802 84.0527 87.1034 84.2291C86.9707 84.4055 86.7939 84.582 86.5728 84.7143C86.3517 84.8466 86.1307 84.9348 85.8654 85.023C85.998 85.0672 86.0864 85.1113 86.2191 85.1995C86.3517 85.2877 86.4402 85.3759 86.5286 85.4641C86.617 85.5523 86.7054 85.6847 86.7939 85.817C86.8823 85.9493 86.9707 86.0816 87.0592 86.1698L88.5624 88.4634ZM83.8757 82.0678V84.185H84.6274C84.9811 84.185 85.2906 84.0968 85.5117 83.8763C85.7327 83.6557 85.8654 83.3911 85.8654 83.0823C85.8654 82.4207 85.4674 82.0678 84.6716 82.0678H83.8757Z" fill="#565658"/>
<path d="M88.9147 88.1553V86.4352C89.2242 86.6998 89.5779 86.8762 89.9316 87.0086C90.2853 87.1409 90.6833 87.185 91.037 87.185C91.258 87.185 91.4349 87.185 91.6118 87.1409C91.7886 87.0968 91.9213 87.0527 92.0097 86.9644C92.0981 86.8762 92.1866 86.8321 92.2308 86.6998C92.275 86.6116 92.3192 86.5234 92.3192 86.3911C92.3192 86.2587 92.275 86.1264 92.1866 85.9941C92.0981 85.8618 91.9655 85.7736 91.8328 85.6853C91.7002 85.5971 91.5233 85.5089 91.3023 85.3766C91.0812 85.2884 90.8601 85.2002 90.639 85.1119C90.02 84.8473 89.5779 84.5385 89.3126 84.1857C89.0031 83.8328 88.8705 83.3917 88.8705 82.8625C88.8705 82.4655 88.9589 82.1126 89.0916 81.848C89.2684 81.5834 89.4895 81.3187 89.7548 81.1423C90.02 80.9658 90.3296 80.8335 90.7275 80.7453C91.0812 80.6571 91.4791 80.613 91.8771 80.613C92.275 80.613 92.6287 80.6571 92.9382 80.7012C93.2477 80.7453 93.513 80.8335 93.7783 80.9217V82.5096C93.6456 82.4214 93.513 82.3332 93.3803 82.2891C93.2477 82.2008 93.0708 82.1567 92.894 82.1126C92.7171 82.0685 92.5845 82.0244 92.4076 82.0244C92.2308 82.0244 92.0981 81.9803 91.9655 81.9803C91.7886 81.9803 91.6118 81.9803 91.4349 82.0244C91.258 82.0685 91.1254 82.1126 91.037 82.2008C90.9043 82.2891 90.8601 82.3332 90.7717 82.4214C90.7275 82.5096 90.6833 82.6419 90.6833 82.7301C90.6833 82.8625 90.7275 82.9507 90.7717 83.083C90.8601 83.1712 90.9485 83.2594 91.0812 83.3918C91.2138 83.48 91.3465 83.5682 91.5233 83.6564C91.7002 83.7446 91.9213 83.8328 92.1423 83.921C92.4518 84.0534 92.7171 84.1857 92.9824 84.318C93.2477 84.4503 93.4246 84.6268 93.6014 84.8032C93.7783 84.9796 93.9109 85.2002 93.9993 85.4207C94.0878 85.6412 94.132 85.9059 94.132 86.2146C94.132 86.6557 94.0435 87.0086 93.8667 87.2732C93.6898 87.582 93.4688 87.8025 93.2035 87.9789C92.9382 88.1554 92.5845 88.2877 92.2308 88.3759C91.8771 88.4641 91.4791 88.5082 91.0812 88.5082C90.639 88.5082 90.2411 88.4641 89.8874 88.42C89.5337 88.3759 89.2242 88.2877 88.9147 88.1553Z" fill="#565658"/>
</svg>
