<svg width="672" height="317" viewBox="0 0 672 317" fill="none" xmlns="http://www.w3.org/2000/svg">
<g filter="url(#filter0_d)">
<path d="M70 241.097V166.797H102.022C105.65 166.797 108.999 167.565 112.068 169.099C115.138 170.565 117.754 172.518 119.917 174.96C122.149 177.332 123.893 180.087 125.149 183.227C126.405 186.297 127.033 189.401 127.033 192.54C127.033 195.819 126.44 199.029 125.254 202.168C124.068 205.238 122.394 207.993 120.231 210.435C118.138 212.807 115.557 214.726 112.487 216.191C109.487 217.586 106.173 218.284 102.545 218.284H90.4063V241.097H70ZM90.4063 200.494H101.185C102.441 200.494 103.592 199.936 104.638 198.819C105.755 197.633 106.313 195.54 106.313 192.54C106.313 189.471 105.685 187.378 104.429 186.262C103.173 185.145 101.917 184.587 100.662 184.587H90.4063V200.494Z" fill="white"/>
<path d="M149.039 166.797H167.666L193.41 241.097H172.689L168.19 226.551H148.411L144.016 241.097H123.191L149.039 166.797ZM164.946 212.947L158.353 189.924L151.446 212.947H164.946Z" fill="white"/>
<path d="M199.583 241.097V166.797H233.698C237.326 166.797 240.675 167.565 243.744 169.099C246.814 170.565 249.43 172.518 251.593 174.96C253.825 177.332 255.569 180.087 256.825 183.227C258.081 186.297 258.709 189.401 258.709 192.54C258.709 196.866 257.767 200.912 255.883 204.68C254 208.377 251.384 211.412 248.035 213.784L263.732 241.097H240.709L227.629 218.284H219.989V241.097H199.583ZM219.989 200.494H232.861C234.117 200.494 235.268 199.796 236.314 198.401C237.431 197.005 237.989 195.052 237.989 192.54C237.989 189.959 237.361 188.006 236.105 186.68C234.849 185.285 233.593 184.587 232.338 184.587H219.989V200.494Z" fill="white"/>
<path d="M327.048 184.587H305.7V241.097H285.293V184.587H263.841V166.797H327.048V184.587Z" fill="white"/>
<path d="M354.886 204.575V241.097H334.48V166.797H350.387L380.211 204.575V166.797H400.617V241.097H384.397L354.886 204.575Z" fill="white"/>
<path d="M466.326 223.307V241.097H413.375V166.797H465.384V184.587H433.781V195.052H460.78V211.586H433.781V223.307H466.326Z" fill="white"/>
<path d="M475.816 241.097V166.797H509.931C513.558 166.797 516.907 167.565 519.977 169.099C523.046 170.565 525.663 172.518 527.825 174.96C530.058 177.332 531.802 180.087 533.058 183.227C534.313 186.297 534.941 189.401 534.941 192.54C534.941 196.866 534 200.912 532.116 204.68C530.232 208.377 527.616 211.412 524.267 213.784L539.964 241.097H516.942L503.861 218.284H496.222V241.097H475.816ZM496.222 200.494H509.093C510.349 200.494 511.5 199.796 512.547 198.401C513.663 197.005 514.221 195.052 514.221 192.54C514.221 189.959 513.593 188.006 512.338 186.68C511.082 185.285 509.826 184.587 508.57 184.587H496.222V200.494Z" fill="white"/>
<path d="M591.431 191.075C589.338 189.82 587.175 188.703 584.942 187.727C583.059 186.89 580.931 186.122 578.559 185.424C576.257 184.657 573.989 184.273 571.757 184.273C569.943 184.273 568.478 184.552 567.362 185.111C566.315 185.669 565.792 186.61 565.792 187.936C565.792 188.913 566.106 189.715 566.734 190.343C567.362 190.971 568.269 191.564 569.455 192.122C570.641 192.61 572.071 193.099 573.745 193.587C575.489 194.075 577.443 194.668 579.605 195.366C583.024 196.412 586.094 197.564 588.814 198.819C591.605 200.075 593.977 201.575 595.93 203.319C597.884 204.994 599.384 207.052 600.43 209.493C601.477 211.935 602 214.9 602 218.388C602 222.853 601.163 226.621 599.488 229.69C597.884 232.69 595.721 235.097 593 236.911C590.349 238.725 587.314 240.05 583.896 240.888C580.547 241.655 577.164 242.039 573.745 242.039C571.024 242.039 568.234 241.829 565.373 241.411C562.513 240.992 559.653 240.399 556.792 239.632C554.002 238.864 551.281 237.957 548.63 236.911C546.048 235.865 543.642 234.679 541.409 233.353L550.199 215.458C552.641 216.993 555.188 218.354 557.839 219.54C560.071 220.586 562.583 221.528 565.373 222.365C568.234 223.202 571.129 223.621 574.059 223.621C576.292 223.621 577.826 223.342 578.664 222.784C579.571 222.156 580.024 221.353 580.024 220.377C580.024 219.33 579.571 218.458 578.664 217.761C577.826 216.993 576.64 216.33 575.106 215.772C573.571 215.214 571.792 214.656 569.769 214.098C567.815 213.54 565.722 212.877 563.49 212.11C560.211 210.993 557.385 209.807 555.013 208.552C552.641 207.226 550.688 205.761 549.153 204.156C547.618 202.482 546.467 200.598 545.7 198.505C545.002 196.412 544.653 194.006 544.653 191.285C544.653 187.169 545.386 183.541 546.851 180.401C548.386 177.262 550.444 174.646 553.025 172.553C555.606 170.46 558.536 168.89 561.815 167.844C565.164 166.727 568.687 166.169 572.385 166.169C575.106 166.169 577.757 166.448 580.338 167.006C582.919 167.495 585.396 168.158 587.768 168.995C590.21 169.762 592.477 170.634 594.57 171.611C596.663 172.518 598.547 173.39 600.221 174.227L591.431 191.075Z" fill="white"/>
<path d="M129.018 144.47V103.367L115.939 132.271H104.509L91.431 103.367V144.47H70V66.4396H93.4093L110.224 103.147L127.149 66.4396H150.449V144.47H129.018Z" fill="#2291EA"/>
<path d="M197.873 126.117C200.364 126.117 202.489 125.567 204.248 124.468C206.006 123.369 207.435 121.94 208.534 120.182C209.633 118.35 210.439 116.262 210.952 113.917C211.465 111.573 211.721 109.118 211.721 106.554V66.4396H233.152V106.554C233.152 111.976 232.456 117.068 231.064 121.83C229.672 126.52 227.51 130.586 224.58 134.03C221.649 137.473 217.949 140.184 213.479 142.162C209.083 144.141 203.881 145.13 197.873 145.13C191.645 145.13 186.297 144.104 181.827 142.052C177.431 139.928 173.805 137.107 170.947 133.59C168.09 130.073 166.002 126.007 164.683 121.391C163.364 116.702 162.704 111.756 162.704 106.554V66.4396H184.135V106.554C184.135 109.118 184.392 111.61 184.905 114.027C185.418 116.372 186.224 118.46 187.323 120.292C188.422 122.05 189.814 123.479 191.499 124.578C193.257 125.604 195.382 126.117 197.873 126.117Z" fill="#2291EA"/>
<path d="M245.479 144.47V66.4396H281.307C285.117 66.4396 288.634 67.2456 291.858 68.8575C295.082 70.3961 297.829 72.4476 300.101 75.012C302.445 77.5031 304.277 80.3972 305.596 83.6943C306.915 86.9181 307.574 90.1785 307.574 93.4756C307.574 98.0182 306.585 102.268 304.607 106.224C302.628 110.108 299.881 113.295 296.364 115.786L312.849 144.47H288.671L274.933 120.512H266.91V144.47H245.479ZM266.91 101.828H280.428C281.747 101.828 282.956 101.096 284.055 99.6301C285.227 98.1648 285.813 96.1133 285.813 93.4756C285.813 90.7647 285.154 88.7132 283.835 87.3211C282.516 85.8557 281.197 85.123 279.878 85.123H266.91V101.828Z" fill="#2291EA"/>
<path d="M339.864 66.4396H359.426L386.462 144.47H364.702L359.976 129.194H339.204L334.588 144.47H312.718L339.864 66.4396ZM356.569 114.907L349.645 90.7281L342.392 114.907H356.569Z" fill="#2291EA"/>
<path d="M446.531 85.123H424.111V144.47H402.68V85.123H380.15V66.4396H446.531V85.123Z" fill="#2291EA"/>
<path d="M488.325 145.13C482.39 145.13 477.005 143.994 472.169 141.723C467.333 139.451 463.194 136.484 459.75 132.821C456.307 129.084 453.632 124.834 451.727 120.072C449.822 115.31 448.87 110.401 448.87 105.345C448.87 100.216 449.859 95.2707 451.837 90.5082C453.815 85.7458 456.563 81.5695 460.08 77.9794C463.67 74.316 467.883 71.4219 472.719 69.2971C477.628 67.099 482.976 66 488.764 66C494.699 66 500.084 67.1357 504.92 69.407C509.756 71.6783 513.895 74.6823 517.339 78.419C520.783 82.1557 523.42 86.4052 525.252 91.1677C527.157 95.9301 528.109 100.802 528.109 105.785C528.109 110.913 527.12 115.859 525.142 120.622C523.164 125.311 520.416 129.487 516.899 133.15C513.383 136.741 509.17 139.635 504.261 141.833C499.425 144.031 494.113 145.13 488.325 145.13ZM470.631 105.565C470.631 108.203 470.997 110.767 471.73 113.258C472.462 115.676 473.561 117.837 475.027 119.742C476.492 121.647 478.324 123.186 480.522 124.358C482.793 125.53 485.467 126.117 488.545 126.117C491.622 126.117 494.296 125.53 496.568 124.358C498.839 123.113 500.671 121.537 502.063 119.632C503.528 117.654 504.59 115.419 505.25 112.928C505.982 110.437 506.349 107.909 506.349 105.345C506.349 102.707 505.982 100.18 505.25 97.7618C504.517 95.2707 503.381 93.1093 501.843 91.2776C500.377 89.3726 498.509 87.8706 496.238 86.7716C494.04 85.5993 491.439 85.0131 488.435 85.0131C485.357 85.0131 482.683 85.5993 480.412 86.7716C478.214 87.9439 476.382 89.5191 474.917 91.4974C473.451 93.4023 472.352 95.6004 471.62 98.0915C470.96 100.509 470.631 103 470.631 105.565Z" fill="#2291EA"/>
<path d="M549.137 66.4396L564.413 117.544L579.47 66.4396H602L573.315 144.47H555.511L526.497 66.4396H549.137Z" fill="#2291EA"/>
</g>
<defs>
<filter id="filter0_d" x="0" y="0" width="672" height="316.039" filterUnits="userSpaceOnUse" color-interpolation-filters="sRGB">
<feFlood flood-opacity="0" result="BackgroundImageFix"/>
<feColorMatrix in="SourceAlpha" type="matrix" values="0 0 0 0 0 0 0 0 0 0 0 0 0 0 0 0 0 0 127 0"/>
<feOffset dy="4"/>
<feGaussianBlur stdDeviation="35"/>
<feColorMatrix type="matrix" values="0 0 0 0 0 0 0 0 0 0 0 0 0 0 0 0 0 0 0.25 0"/>
<feBlend mode="normal" in2="BackgroundImageFix" result="effect1_dropShadow"/>
<feBlend mode="normal" in="SourceGraphic" in2="effect1_dropShadow" result="shape"/>
</filter>
</defs>
</svg>
