<svg width="98" height="90" viewBox="0 0 98 90" fill="none" xmlns="http://www.w3.org/2000/svg">
<path fill-rule="evenodd" clip-rule="evenodd" d="M45 90C69.8528 90 90 69.8528 90 45C90 20.1472 69.8528 0 45 0C20.1472 0 0 20.1472 0 45C0 69.8528 20.1472 90 45 90ZM45 83.6842C66.3647 83.6842 83.6842 66.3647 83.6842 45C83.6842 23.6353 66.3647 6.31577 45 6.31577C23.6353 6.31577 6.31577 23.6353 6.31577 45C6.31577 66.3647 23.6353 83.6842 45 83.6842Z" fill="white"/>
<path d="M31.6318 62.3712V27.2816H47.1503C48.7648 27.2816 50.2475 27.6276 51.5983 28.3195C52.9821 28.9784 54.1683 29.868 55.1567 30.9883C56.1452 32.0756 56.9194 33.3276 57.4795 34.7443C58.0397 36.1282 58.3197 37.5284 58.3197 38.9452C58.3197 41.2186 57.7431 43.2943 56.59 45.1724C55.4697 47.0175 53.9376 48.3519 51.9937 49.1756L60.0001 62.3712H52.3397L45.1735 50.6088H38.4521V62.3712H31.6318ZM38.4521 44.6287H47.0021C47.6281 44.6287 48.2047 44.4805 48.7318 44.1839C49.292 43.8874 49.7697 43.492 50.1651 42.9978C50.5605 42.4706 50.8735 41.8611 51.1041 41.1692C51.3347 40.4773 51.4501 39.736 51.4501 38.9452C51.4501 38.1215 51.3183 37.3637 51.0547 36.6718C50.7911 35.9799 50.4287 35.3868 49.9674 34.8926C49.5391 34.3654 49.0284 33.9701 48.4353 33.7065C47.8752 33.4099 47.2986 33.2617 46.7055 33.2617H38.4521V44.6287Z" fill="white"/>
<path fill-rule="evenodd" clip-rule="evenodd" d="M89.6018 15.9291C93.7806 15.9291 97.1681 12.5416 97.1681 8.36276C97.1681 4.18397 93.7806 0.796387 89.6018 0.796387C85.423 0.796387 82.0354 4.18397 82.0354 8.36276C82.0354 12.5416 85.423 15.9291 89.6018 15.9291ZM89.6017 14.8673C93.194 14.8673 96.1061 11.9551 96.1061 8.36283C96.1061 4.77054 93.194 1.85841 89.6017 1.85841C86.0094 1.85841 83.0973 4.77054 83.0973 8.36283C83.0973 11.9551 86.0094 14.8673 89.6017 14.8673Z" fill="white"/>
<path d="M87.354 11.2836V5.38354H89.9633C90.2348 5.38354 90.4841 5.44171 90.7112 5.55805C90.9439 5.66885 91.1433 5.81843 91.3095 6.00679C91.4757 6.1896 91.6059 6.40012 91.7001 6.63834C91.7943 6.87102 91.8413 7.10646 91.8413 7.34468C91.8413 7.72694 91.7444 8.07595 91.5505 8.39173C91.3621 8.70196 91.1045 8.92633 90.7777 9.06483L92.1239 11.2836H90.8359L89.6309 9.30582H88.5008V11.2836H87.354ZM88.5008 8.30032H89.9384C90.0436 8.30032 90.1406 8.27539 90.2292 8.22553C90.3234 8.17567 90.4037 8.10919 90.4702 8.02609C90.5367 7.93745 90.5893 7.83496 90.6281 7.71863C90.6669 7.60229 90.6863 7.47764 90.6863 7.34468C90.6863 7.20618 90.6641 7.07876 90.6198 6.96243C90.5755 6.84609 90.5145 6.74637 90.437 6.66327C90.365 6.57463 90.2791 6.50815 90.1794 6.46383C90.0852 6.41397 89.9882 6.38904 89.8885 6.38904H88.5008V8.30032Z" fill="white"/>
</svg>
