<svg width="29" height="29" viewBox="0 0 29 29" fill="none" xmlns="http://www.w3.org/2000/svg">
<path d="M27.967 3.22234H15.1821V25.7779H27.967C28.4089 25.7779 28.7661 25.4178 28.7661 24.9724V4.02789C28.7661 3.58242 28.4089 3.22234 27.967 3.22234Z" fill="#2196F3"/>
<path d="M15.1821 7.25081H26.3689V8.86112H15.1821V7.25081ZM15.1821 10.4722H26.3689V12.0833H15.1821V10.4722ZM15.1821 13.6953H26.3689V15.3064H15.1821V13.6953ZM15.1821 16.9175H26.3689V18.5278H15.1821V16.9175ZM15.1821 20.1389H26.3689V21.7508H15.1821V20.1389Z" fill="#FAFAFA"/>
<path d="M16.7802 29L0 25.7778V3.22222L16.7802 0V29Z" fill="#0D47A1"/>
<path d="M12.1193 20.1485H9.94823L8.50833 12.9082C8.43002 12.5239 8.38447 12.1058 8.36929 11.6386H8.34372C8.30936 12.1518 8.25582 12.5747 8.18631 12.9082L6.70805 20.1485H4.44912L2.16382 8.85943H4.30129L5.52864 16.3737C5.57819 16.6991 5.61734 17.1293 5.64291 17.6682H5.67647C5.69165 17.267 5.75478 16.8216 5.85466 16.3431L7.4288 8.85863H9.52393L10.9502 16.4341C10.9998 16.7144 11.0453 17.1156 11.0861 17.6513H11.1109C11.1268 17.2364 11.1692 16.8175 11.2387 16.3922L12.4397 8.85863H14.4118L12.1193 20.1485Z" fill="#FAFAFA"/>
</svg>
