<svg width="100" height="71" viewBox="0 0 100 71" fill="none" xmlns="http://www.w3.org/2000/svg">
<path d="M3.00309 54.468H96.343V3.01181H3.00309V54.468ZM97.8432 57.4798H1.50291C0.669144 57.4798 0 56.8158 0 55.9821V1.51734C0 0.73377 0.669144 0 1.50291 0H97.8432C98.677 0 99.3461 0.73377 99.3461 1.51734V55.9821C99.3461 56.8158 98.677 57.4798 97.8432 57.4798Z" fill="#1062B0"/>
<path d="M35.6843 61.3868H63.6473V57.4747H35.6843V61.3868ZM65.1478 64.3986H34.1811C33.3502 64.3986 32.6782 63.7351 32.6782 62.9041V55.977C32.6782 55.1265 33.3502 54.4629 34.1811 54.4629H65.1478C65.9787 54.4629 66.6479 55.1265 66.6479 55.977V62.9041C66.6479 63.7351 65.9787 64.3986 65.1478 64.3986Z" fill="#1062B0"/>
<path d="M13.2998 67.2925H86.0382V64.3983H13.2998V67.2925ZM87.5468 70.3043H11.7969C10.9659 70.3043 10.2939 69.5879 10.2939 68.8071V62.9038C10.2939 62.1175 10.9659 61.3865 11.7969 61.3865H87.5468C88.3778 61.3865 89.0498 62.1175 89.0498 62.9038V68.8071C89.0498 69.5879 88.3778 70.3043 87.5468 70.3043Z" fill="#1062B0"/>
<path d="M26.0401 37.3231C28.4849 37.3231 30.278 36.208 31.4194 33.9778C31.6719 33.4844 32.2481 33.2242 32.7641 33.4267L34.877 34.256C35.3939 34.4588 35.6507 35.0466 35.4051 35.5447C34.5647 37.2492 33.4364 38.546 32.0201 39.4354C30.359 40.4785 28.3656 41 26.0401 41C22.5134 41 19.7917 39.983 17.875 37.949C15.9583 35.915 15 33.0726 15 29.4218C15 25.7449 15.92 22.9286 17.76 20.9728C19.6256 18.9909 22.3217 18 25.8484 18C28.4295 18 30.5251 18.5346 32.1351 19.6037C33.4795 20.4747 34.4853 21.6911 35.1525 23.253C35.3741 23.7716 35.0597 24.3458 34.517 24.4988L32.4332 25.0861C31.9066 25.2345 31.3695 24.9239 31.11 24.4422C30.732 23.7406 30.1792 23.1578 29.4518 22.6939C28.4551 22.0159 27.2795 21.6769 25.9251 21.6769C23.8551 21.6769 22.2834 22.3418 21.21 23.6718C20.1367 24.9756 19.6 26.8923 19.6 29.4218C19.6 31.9773 20.1495 33.9331 21.2484 35.2891C22.3728 36.6451 23.9701 37.3231 26.0401 37.3231Z" fill="#1062B0"/>
<path d="M54.3976 40.6871C54.0465 40.6871 53.7211 40.503 53.5403 40.202L49.0247 32.6841C48.8439 32.3831 48.5185 32.199 48.1675 32.199H44.3666C43.8143 32.199 43.3666 32.6467 43.3666 33.199V39.6871C43.3666 40.2394 42.9189 40.6871 42.3666 40.6871H39.8049C39.2526 40.6871 38.8049 40.2394 38.8049 39.6871V19.352C38.8049 18.7998 39.2526 18.352 39.8049 18.352H49.73C52.3367 18.352 54.3428 18.9257 55.7484 20.0731C57.1795 21.2205 57.8951 22.8634 57.8951 25.0017C57.8951 26.5663 57.4606 27.9223 56.5917 29.0697C55.9956 29.839 55.2551 30.4304 54.3703 30.8437C53.7526 31.1323 53.4392 31.8943 53.8021 32.4715L58.0048 39.1547C58.4236 39.8207 57.9449 40.6871 57.1583 40.6871H54.3976ZM53.295 25.1973C53.295 23.059 51.9406 21.9898 49.2317 21.9898H44.3666C43.8143 21.9898 43.3666 22.4375 43.3666 22.9898V27.5612C43.3666 28.1135 43.8143 28.5612 44.3666 28.5612H49.385C50.6628 28.5612 51.6339 28.2744 52.2984 27.7007C52.9628 27.1009 53.295 26.2664 53.295 25.1973Z" fill="#1062B0"/>
<path d="M80.9366 40.6871C80.3844 40.6871 79.9366 40.2394 79.9366 39.6871V27.1531C79.9366 26.8401 79.9366 26.5402 79.9366 26.2534C79.9366 25.7451 79.1923 25.631 79.0556 26.1206C78.8105 26.9982 78.6059 27.6944 78.4416 28.2092L74.7142 39.9888C74.5827 40.4045 74.1969 40.6871 73.7608 40.6871H71.9674C71.5313 40.6871 71.1455 40.4045 71.0139 39.9888L67.2866 28.2092L66.9456 26.9793C66.7743 26.3615 65.8299 26.5119 65.8299 27.1531V39.6871C65.8299 40.2394 65.3822 40.6871 64.8299 40.6871H62.7665C62.2142 40.6871 61.7665 40.2394 61.7665 39.6871V19.352C61.7665 18.7998 62.2142 18.352 62.7665 18.352H67.1653C67.6024 18.352 67.9888 18.6359 68.1195 19.053L71.8099 30.8299L72.1549 32.0425C72.3498 32.8483 73.4891 32.867 73.7103 32.0681L73.8799 31.4558L77.688 19.0584C77.8169 18.6386 78.2047 18.352 78.6439 18.352H83C83.5523 18.352 84 18.7998 84 19.352V39.6871C84 40.2394 83.5523 40.6871 83 40.6871H80.9366Z" fill="#1062B0"/>
</svg>
