<svg width="85" height="95" viewBox="0 0 85 95" fill="none" xmlns="http://www.w3.org/2000/svg">
<path d="M62.2402 54.407C61.8653 54.407 61.5597 54.6927 61.5597 55.0742V63.5165C61.5597 63.8768 61.8653 64.1902 62.2402 64.1902H70.9524C71.3262 64.1902 71.6297 63.8768 71.6297 63.5165V55.0742C71.6297 54.6927 71.3262 54.407 70.9524 54.407H62.2402ZM70.9524 65.3953H62.2402C61.2004 65.3953 60.3569 64.5518 60.3569 63.5165V55.0742C60.3569 54.04 61.2004 53.1965 62.2402 53.1965H70.9524C71.9889 53.1965 72.8369 54.04 72.8369 55.0742V63.5165C72.8369 64.5518 71.9889 65.3953 70.9524 65.3953Z" fill="#1062B0"/>
<path d="M70.9021 54.4068C70.5674 54.4068 70.2996 54.1145 70.2996 53.801V51.3644C70.2996 49.6284 68.6362 48.2059 66.5945 48.2059C64.5517 48.2059 62.8872 49.6284 62.8872 51.3644V53.801C62.8872 54.1145 62.6216 54.4068 62.2891 54.4068C61.9578 54.4068 61.6855 54.1145 61.6855 53.801V51.3644C61.6855 48.9813 63.8879 47 66.5945 47C69.3022 47 71.5013 48.9813 71.5013 51.3644V53.801C71.5013 54.1145 71.2324 54.4068 70.9021 54.4068Z" fill="#1062B0"/>
<path d="M68.2689 58.6685H68.2744H68.2689ZM66.5965 57.8039C66.0063 57.8039 65.5244 58.1854 65.5244 58.6685C65.5355 58.7433 65.6661 59.03 65.7988 59.2275C65.9071 59.3903 65.9293 59.609 65.849 59.8064C65.801 59.9213 65.7508 60.0709 65.7486 60.1189C65.7486 60.4793 66.1368 60.7927 66.5965 60.7927C67.0572 60.7927 67.4445 60.4793 67.4445 60.1189C67.4422 60.0709 67.3864 59.9013 67.344 59.8064C67.2648 59.609 67.2827 59.3903 67.3942 59.2275C67.527 59.03 67.6575 58.7643 67.6653 58.6483C67.6631 58.1853 67.1867 57.8039 66.5965 57.8039ZM66.5965 61.9709C65.4663 61.9709 64.5403 61.1531 64.5403 60.1189C64.5403 59.9493 64.586 59.7786 64.6307 59.6347C64.4878 59.3703 64.3228 58.982 64.3228 58.6685C64.3228 57.5384 65.3413 56.5989 66.5965 56.5989C67.8483 56.5989 68.8702 57.5384 68.8702 58.6685C68.8702 58.982 68.7006 59.3703 68.5589 59.6347C68.6069 59.7786 68.6494 59.9493 68.6494 60.1189C68.6494 61.1531 67.7289 61.9709 66.5965 61.9709Z" fill="#1062B0"/>
<path d="M66.2862 41.8314C57.8566 41.8314 51.0629 48.6423 51.0629 57.0437C51.0629 65.4287 57.8566 72.2537 66.2862 72.2537C74.6595 72.2537 81.4683 65.4287 81.4683 57.0437C81.4683 48.6423 74.6595 41.8314 66.2862 41.8314ZM66.2862 74.7908C56.4963 74.7908 48.5254 66.8195 48.5254 57.0437C48.5254 47.2514 56.4963 39.2961 66.2862 39.2961C76.0339 39.2961 84.0058 47.2514 84.0058 57.0437C84.0058 66.8195 76.0339 74.7908 66.2862 74.7908Z" fill="#1062B0"/>
<path d="M66.2877 94.474H1.25913C0.542563 94.474 0 93.9005 0 93.2121V1.27565C0 0.573178 0.542563 0 1.25913 0H66.2877C66.9456 0 67.5634 0.573178 67.5634 1.27565V32.7437C67.5634 33.4462 66.9456 34.0194 66.2877 34.0194C65.5712 34.0194 65.0268 33.4462 65.0268 32.7437V2.53753H2.53477V91.9365H65.0268V79.95C65.0268 79.2475 65.5712 78.6904 66.2877 78.6904C66.9456 78.6904 67.5634 79.2475 67.5634 79.95V93.2121C67.5634 93.9005 66.9456 94.474 66.2877 94.474Z" fill="#1062B0"/>
<path d="M22.3785 17.4621H10.8527C10.1479 17.4621 9.59082 16.8889 9.59082 16.1864C9.59082 15.484 10.1479 14.9246 10.8527 14.9246H22.3785C23.095 14.9246 23.6541 15.484 23.6541 16.1864C23.6541 16.8889 23.095 17.4621 22.3785 17.4621Z" fill="#1062B0"/>
<path d="M53.6015 40.2678H10.8527C10.1479 40.2678 9.59082 39.7087 9.59082 38.9921C9.59082 38.3037 10.1479 37.7302 10.8527 37.7302H53.6015C54.2594 37.7302 54.8634 38.3037 54.8634 38.9921C54.8634 39.7087 54.2594 40.2678 53.6015 40.2678Z" fill="#1062B0"/>
<path d="M44.0544 51.6844H10.8527C10.1479 51.6844 9.59082 51.1089 9.59082 50.4064C9.59082 49.7063 10.1479 49.1445 10.8527 49.1445H44.0544C44.7709 49.1445 45.3153 49.7063 45.3153 50.4064C45.3153 51.1089 44.7709 51.6844 44.0544 51.6844Z" fill="#1062B0"/>
<path d="M44.0544 63.0742H10.8527C10.1479 63.0742 9.59082 62.5153 9.59082 61.8128C9.59082 61.1103 10.1479 60.5532 10.8527 60.5532H44.0544C44.7709 60.5532 45.3153 61.1103 45.3153 61.8128C45.3153 62.5153 44.7709 63.0742 44.0544 63.0742Z" fill="#1062B0"/>
<path d="M56.6403 79.5634H46.3479C45.676 79.5634 45.0723 78.9903 45.0723 78.2878C45.0723 77.583 45.676 77.0264 46.3479 77.0264H56.6403C57.3568 77.0264 57.9187 77.583 57.9187 78.2878C57.9187 78.9903 57.3568 79.5634 56.6403 79.5634Z" fill="#1062B0"/>
</svg>
