<svg width="75" height="95" viewBox="0 0 75 95" fill="none" xmlns="http://www.w3.org/2000/svg">
<path d="M37.5216 10.3606C34.4741 10.3606 31.9753 12.8453 31.9753 15.8927C31.9753 19.3586 34.8435 24.2729 37.5216 24.2729C40.1448 24.2729 43.016 19.3586 43.016 15.8927C43.016 12.8453 40.5864 10.3606 37.5216 10.3606ZM37.5216 27.3724C32.4685 27.3724 28.8584 20.5216 28.8584 15.8927C28.8584 11.1368 32.7138 7.26392 37.5216 7.26392C42.2573 7.26392 46.1329 11.1368 46.1329 15.8927C46.1329 20.5216 42.5054 27.3724 37.5216 27.3724Z" fill="#1062B0"/>
<path d="M50.4366 62.0944C47.7585 62.0944 45.5735 59.9302 45.5735 57.2521V39.6947C45.5735 38.8318 46.2606 38.1272 47.1235 38.1272C48.0037 38.1272 48.6938 38.8318 48.6938 39.6947V57.2521C48.6938 58.2189 49.4496 58.9949 50.4366 58.9949C51.3687 58.9949 52.1771 58.2189 52.1771 57.2521V32.5984C52.1771 32.0183 51.6866 31.5247 51.069 31.5247H24.6195C24.0568 31.5247 23.5632 32.0183 23.5632 32.5984V57.2521C23.5632 58.2189 24.375 58.9949 25.3071 58.9949C26.2595 58.9949 27.0499 58.2189 27.0499 57.2521V39.6947C27.0499 38.8318 27.7367 38.1272 28.6168 38.1272C29.497 38.1272 30.1838 38.8318 30.1838 39.6947V57.2521C30.1838 59.9302 27.9823 62.0944 25.3071 62.0944C22.632 62.0944 20.4463 59.9302 20.4463 57.2521V32.5984C20.4463 30.2926 22.3137 28.4077 24.6195 28.4077H51.069C53.3777 28.4077 55.2411 30.2926 55.2411 32.5984V57.2521C55.2411 59.9302 53.1118 62.0944 50.4366 62.0944Z" fill="#1062B0"/>
<path d="M33.2214 94.0899C29.7873 94.0899 27.0405 91.3252 27.0405 87.9113V57.2519C27.0405 56.3891 27.7273 55.7019 28.6075 55.7019C29.4876 55.7019 30.1744 56.3891 30.1744 57.2519V87.9113C30.1744 89.5995 31.5303 90.9904 33.2214 90.9904C34.9125 90.9904 36.2696 89.5995 36.2696 87.9113V57.2519C36.2696 56.3891 37.0256 55.7019 37.8365 55.7019C38.6994 55.7019 39.3832 56.3891 39.3832 57.2519V87.9113C39.3832 91.3252 36.6556 94.0899 33.2214 94.0899Z" fill="#1062B0"/>
<path d="M42.5033 94.0899C39.0864 94.0899 36.2705 91.3252 36.2705 87.9113V57.2519C36.2705 56.3891 37.0265 55.7019 37.8374 55.7019C38.7003 55.7019 39.3841 56.3891 39.3841 57.2519V87.9113C39.3841 89.5995 40.7746 90.9904 42.5033 90.9904C44.1915 90.9904 45.565 89.5995 45.565 87.9113V57.2519C45.565 56.3891 46.2521 55.7019 47.115 55.7019C47.9952 55.7019 48.6853 56.3891 48.6853 57.2519V87.9113C48.6853 91.3252 45.8826 94.0899 42.5033 94.0899Z" fill="#1062B0"/>
<path d="M17.007 3.10229C13.9596 3.10229 11.5295 5.58423 11.5295 8.6288C11.5295 12.1005 14.3289 16.9949 17.007 16.9949C19.7024 16.9949 22.5713 12.1005 22.5713 8.6288C22.5713 5.58423 20.0718 3.10229 17.007 3.10229ZM17.007 20.1113C12.0232 20.1113 8.4126 13.2606 8.4126 8.6288C8.4126 3.87581 12.2713 0 17.007 0C21.8148 0 25.6702 3.87581 25.6702 8.6288C25.6702 13.2606 22.0601 20.1113 17.007 20.1113Z" fill="#1062B0"/>
<path d="M4.86198 54.8367C2.18391 54.8367 0 52.6697 0 49.9945V25.3408C0 23.035 1.86678 21.1506 4.17546 21.1506H26.6794C27.4875 21.1506 28.2464 21.8547 28.2464 22.7176C28.2464 23.5631 27.4875 24.267 26.6794 24.267H4.17546C3.61272 24.267 3.10229 24.7607 3.10229 25.3408V49.9945C3.10229 50.9468 3.8577 51.7203 4.86198 51.7203C5.79411 51.7203 6.536 50.9468 6.536 49.9945V32.437C6.536 31.5568 7.29263 30.8701 8.10067 30.8701C8.98085 30.8701 9.65068 31.5568 9.65068 32.437V49.9945C9.65068 52.6697 7.48522 54.8367 4.86198 54.8367Z" fill="#1062B0"/>
<path d="M12.7725 86.8325C9.34119 86.8325 6.52393 84.0504 6.52393 80.6336V49.9945C6.52393 49.1317 7.28056 48.4451 8.0886 48.4451C8.96878 48.4451 9.63861 49.1317 9.63861 49.9945V80.6336C9.63861 82.3449 11.0121 83.7156 12.7725 83.7156C14.4463 83.7156 15.8195 82.3449 15.8195 80.6336V49.9945C15.8195 49.1317 16.5067 48.4451 17.3695 48.4451C18.2497 48.4451 18.9365 49.1317 18.9365 49.9945V80.6336C18.9365 84.0504 16.1374 86.8325 12.7725 86.8325Z" fill="#1062B0"/>
<path d="M22.0062 86.8325C18.624 86.8325 15.8242 84.0504 15.8242 80.6336V49.9945C15.8242 49.1317 16.5114 48.4451 17.3742 48.4451C18.2544 48.4451 18.9412 49.1317 18.9412 49.9945V80.6336C18.9412 82.3449 20.3151 83.7156 22.0062 83.7156C22.8691 83.7156 23.5551 84.4196 23.5551 85.2825C23.5551 86.1482 22.8691 86.8325 22.0062 86.8325Z" fill="#1062B0"/>
<path d="M57.9679 3.10229C54.9233 3.10229 52.4385 5.58423 52.4385 8.6288C52.4385 12.1005 55.31 16.9949 57.9679 16.9949C60.6633 16.9949 63.5344 12.1005 63.5344 8.6288C63.5344 5.58423 61.0326 3.10229 57.9679 3.10229ZM57.9679 20.1113C52.9869 20.1113 49.3047 13.2606 49.3047 8.6288C49.3047 3.87581 53.2495 0 57.9679 0C62.7237 0 66.6513 3.87581 66.6513 8.6288C66.6513 13.2606 62.969 20.1113 57.9679 20.1113Z" fill="#1062B0"/>
<path d="M70.2091 54.8367C67.5137 54.8367 65.3325 52.6697 65.3325 49.9945V32.437C65.3325 31.5568 66.0365 30.8701 66.8994 30.8701C67.7796 30.8701 68.4494 31.5568 68.4494 32.437V49.9945C68.4494 50.9468 69.2077 51.7203 70.2091 51.7203C71.1441 51.7203 71.8831 50.9468 71.8831 49.9945V25.3408C71.8831 24.7607 71.4415 24.267 70.8269 24.267H48.3725C47.5125 24.267 46.8247 23.5631 46.8247 22.7176C46.8247 21.8547 47.5125 21.1506 48.3725 21.1506H70.8269C73.1326 21.1506 75.0001 23.035 75.0001 25.3408V49.9945C75.0001 52.6697 72.8872 54.8367 70.2091 54.8367Z" fill="#1062B0"/>
<path d="M62.2728 86.8325C58.8386 86.8325 56.04 84.0504 56.04 80.6336V49.9945C56.04 49.1317 56.7809 48.4451 57.5889 48.4451C58.4691 48.4451 59.157 49.1317 59.157 49.9945V80.6336C59.157 82.3449 60.5297 83.7156 62.2728 83.7156C63.9639 83.7156 65.321 82.3449 65.321 80.6336V49.9945C65.321 49.1317 66.025 48.4451 66.8879 48.4451C67.7681 48.4451 68.4379 49.1317 68.4379 49.9945V80.6336C68.4379 84.0504 65.6377 86.8325 62.2728 86.8325Z" fill="#1062B0"/>
<path d="M52.9855 86.8325C52.1227 86.8325 51.4321 86.1482 51.4321 85.2825C51.4321 84.4196 52.1227 83.7156 52.9855 83.7156C54.6737 83.7156 56.0472 82.3449 56.0472 80.6336V49.9945C56.0472 49.1317 56.7881 48.4451 57.5961 48.4451C58.4763 48.4451 59.1642 49.1317 59.1642 49.9945V80.6336C59.1642 84.0504 56.4197 86.8325 52.9855 86.8325Z" fill="#1062B0"/>
</svg>
